<?xml version="1.0" standalone="no"?>
<!DOCTYPE svg PUBLIC "-//W3C//DTD SVG 20010904//EN"
 "http://www.w3.org/TR/2001/REC-SVG-20010904/DTD/svg10.dtd">
<svg version="1.0" xmlns="http://www.w3.org/2000/svg"
 width="512.000000pt" height="512.000000pt" viewBox="0 0 512.000000 512.000000"
 preserveAspectRatio="xMidYMid meet">
<metadata>
Created by potrace 1.11, written by Peter Selinger 2001-2013
</metadata>
<g transform="translate(0.000000,512.000000) scale(0.100000,-0.100000)"
fill="#000000" stroke="none">
<path d="M2450 5058 c-58 -33 -172 -99 -255 -145 -82 -47 -166 -94 -185 -105
-19 -11 -71 -41 -115 -66 -44 -25 -177 -100 -295 -167 -118 -68 -233 -133
-255 -145 -136 -76 -642 -364 -650 -370 -5 -4 -37 -22 -70 -40 -33 -18 -143
-80 -245 -138 -208 -118 -222 -126 -302 -171 -32 -18 -60 -36 -62 -40 -3 -3
86 -58 196 -121 231 -132 209 -120 521 -297 l237 -136 -34 -23 c-19 -13 -37
-24 -40 -24 -3 0 -27 -13 -53 -29 -27 -15 -221 -126 -433 -246 -212 -120 -389
-221 -393 -225 -7 -6 109 -77 327 -199 108 -61 622 -355 626 -358 2 -2 -1 -7
-8 -11 -195 -108 -952 -538 -952 -542 0 -3 17 -14 37 -25 21 -11 62 -34 91
-52 29 -18 54 -33 57 -33 2 0 26 -13 53 -29 26 -15 68 -39 93 -53 24 -14 409
-233 854 -488 446 -255 824 -471 841 -481 18 -9 127 -72 244 -139 117 -67 228
-130 246 -141 l34 -19 843 482 c463 264 856 489 872 498 31 18 634 362 720
412 28 16 65 36 83 45 17 9 32 19 32 22 0 3 -33 24 -72 46 -96 53 -169 94
-248 140 -36 20 -89 50 -118 66 -28 16 -70 40 -92 54 -22 14 -41 25 -44 25 -2
0 -74 40 -160 90 -86 49 -161 90 -166 90 -6 0 -10 4 -10 9 0 5 -11 12 -25 15
-34 9 -31 19 8 39 33 17 96 52 207 117 36 21 81 47 100 57 147 82 607 347 613
353 7 6 -143 100 -159 100 -3 0 -17 8 -32 19 -15 10 -99 59 -187 108 -271 152
-539 305 -558 318 -16 11 -5 20 103 81 146 83 87 50 498 284 258 147 338 198
329 206 -11 10 -610 352 -747 427 -30 16 -59 33 -65 37 -5 4 -32 20 -60 35
-27 15 -131 74 -230 130 -99 57 -198 113 -220 125 -22 12 -121 68 -220 125
-99 56 -200 113 -225 127 -25 14 -139 79 -255 145 -115 66 -237 135 -270 153
-33 18 -72 41 -87 51 -14 11 -29 19 -32 19 -2 0 -32 16 -65 35 -32 19 -61 35
-63 34 -2 0 -50 -27 -108 -61z"/>
</g>
</svg>
